<mxfile host="app.diagrams.net" modified="2022-05-10T10:35:51.319Z" agent="5.0 (Windows NT 10.0; Win64; x64) AppleWebKit/537.36 (KHTML, like Gecko) Chrome/101.0.4951.54 Safari/537.36" etag="WKuNL_Esm1gx9n9POIk2" version="18.0.2" type="github">
  <diagram id="O8RzOwunAcSiAiOfZV96" name="Page-1">
    <mxGraphModel dx="1422" dy="762" grid="1" gridSize="10" guides="1" tooltips="1" connect="1" arrows="1" fold="1" page="1" pageScale="1" pageWidth="827" pageHeight="1169" math="0" shadow="0">
      <root>
        <mxCell id="0" />
        <mxCell id="1" parent="0" />
        <mxCell id="JIwNZES6iCdUXcAtU9gG-10" value="" style="rounded=0;whiteSpace=wrap;html=1;" vertex="1" parent="1">
          <mxGeometry x="470" y="140" width="160" height="510" as="geometry" />
        </mxCell>
        <mxCell id="JIwNZES6iCdUXcAtU9gG-2" value="" style="rounded=0;whiteSpace=wrap;html=1;" vertex="1" parent="1">
          <mxGeometry x="40" y="140" width="160" height="510" as="geometry" />
        </mxCell>
        <mxCell id="JIwNZES6iCdUXcAtU9gG-3" value="" style="rounded=0;whiteSpace=wrap;html=1;" vertex="1" parent="1">
          <mxGeometry x="260" y="140" width="160" height="510" as="geometry" />
        </mxCell>
        <mxCell id="JIwNZES6iCdUXcAtU9gG-8" style="edgeStyle=orthogonalEdgeStyle;rounded=0;orthogonalLoop=1;jettySize=auto;html=1;" edge="1" parent="1" source="JIwNZES6iCdUXcAtU9gG-1" target="JIwNZES6iCdUXcAtU9gG-4">
          <mxGeometry relative="1" as="geometry" />
        </mxCell>
        <mxCell id="JIwNZES6iCdUXcAtU9gG-9" style="edgeStyle=orthogonalEdgeStyle;rounded=0;orthogonalLoop=1;jettySize=auto;html=1;entryX=0;entryY=0.5;entryDx=0;entryDy=0;" edge="1" parent="1" source="JIwNZES6iCdUXcAtU9gG-1" target="JIwNZES6iCdUXcAtU9gG-5">
          <mxGeometry relative="1" as="geometry" />
        </mxCell>
        <mxCell id="JIwNZES6iCdUXcAtU9gG-1" value="A" style="rounded=0;whiteSpace=wrap;html=1;" vertex="1" parent="1">
          <mxGeometry x="60" y="210" width="120" height="60" as="geometry" />
        </mxCell>
        <mxCell id="JIwNZES6iCdUXcAtU9gG-13" style="edgeStyle=orthogonalEdgeStyle;rounded=0;orthogonalLoop=1;jettySize=auto;html=1;" edge="1" parent="1" source="JIwNZES6iCdUXcAtU9gG-4" target="JIwNZES6iCdUXcAtU9gG-11">
          <mxGeometry relative="1" as="geometry" />
        </mxCell>
        <mxCell id="JIwNZES6iCdUXcAtU9gG-14" style="edgeStyle=orthogonalEdgeStyle;rounded=0;orthogonalLoop=1;jettySize=auto;html=1;entryX=0;entryY=0.5;entryDx=0;entryDy=0;" edge="1" parent="1" source="JIwNZES6iCdUXcAtU9gG-4" target="JIwNZES6iCdUXcAtU9gG-12">
          <mxGeometry relative="1" as="geometry" />
        </mxCell>
        <mxCell id="JIwNZES6iCdUXcAtU9gG-4" value="B（点击高亮）" style="rounded=0;whiteSpace=wrap;html=1;" vertex="1" parent="1">
          <mxGeometry x="280" y="200" width="120" height="60" as="geometry" />
        </mxCell>
        <mxCell id="JIwNZES6iCdUXcAtU9gG-16" style="edgeStyle=orthogonalEdgeStyle;rounded=0;orthogonalLoop=1;jettySize=auto;html=1;entryX=0;entryY=0.5;entryDx=0;entryDy=0;" edge="1" parent="1" source="JIwNZES6iCdUXcAtU9gG-5" target="JIwNZES6iCdUXcAtU9gG-15">
          <mxGeometry relative="1" as="geometry" />
        </mxCell>
        <mxCell id="JIwNZES6iCdUXcAtU9gG-5" value="C" style="rounded=0;whiteSpace=wrap;html=1;" vertex="1" parent="1">
          <mxGeometry x="280" y="300" width="120" height="60" as="geometry" />
        </mxCell>
        <mxCell id="JIwNZES6iCdUXcAtU9gG-6" value="（置灰）其他的文章" style="rounded=0;whiteSpace=wrap;html=1;" vertex="1" parent="1">
          <mxGeometry x="280" y="400" width="120" height="60" as="geometry" />
        </mxCell>
        <mxCell id="JIwNZES6iCdUXcAtU9gG-7" value="（置灰）其他的文章" style="rounded=0;whiteSpace=wrap;html=1;" vertex="1" parent="1">
          <mxGeometry x="60" y="310" width="120" height="60" as="geometry" />
        </mxCell>
        <mxCell id="JIwNZES6iCdUXcAtU9gG-11" value="B1" style="rounded=0;whiteSpace=wrap;html=1;" vertex="1" parent="1">
          <mxGeometry x="490" y="200" width="120" height="60" as="geometry" />
        </mxCell>
        <mxCell id="JIwNZES6iCdUXcAtU9gG-12" value="B2" style="rounded=0;whiteSpace=wrap;html=1;" vertex="1" parent="1">
          <mxGeometry x="490" y="290" width="120" height="60" as="geometry" />
        </mxCell>
        <mxCell id="JIwNZES6iCdUXcAtU9gG-15" value="C1" style="rounded=0;whiteSpace=wrap;html=1;" vertex="1" parent="1">
          <mxGeometry x="490" y="400" width="120" height="60" as="geometry" />
        </mxCell>
        <mxCell id="JIwNZES6iCdUXcAtU9gG-17" value="" style="curved=1;endArrow=classic;html=1;rounded=0;" edge="1" parent="1" source="JIwNZES6iCdUXcAtU9gG-11" target="JIwNZES6iCdUXcAtU9gG-5">
          <mxGeometry width="50" height="50" relative="1" as="geometry">
            <mxPoint x="640" y="130" as="sourcePoint" />
            <mxPoint x="690" y="80" as="targetPoint" />
            <Array as="points">
              <mxPoint x="630" y="130" />
              <mxPoint x="520" y="90" />
              <mxPoint x="380" y="100" />
            </Array>
          </mxGeometry>
        </mxCell>
        <mxCell id="JIwNZES6iCdUXcAtU9gG-18" value="" style="curved=1;endArrow=classic;html=1;rounded=0;" edge="1" parent="1" source="JIwNZES6iCdUXcAtU9gG-11" target="JIwNZES6iCdUXcAtU9gG-15">
          <mxGeometry width="50" height="50" relative="1" as="geometry">
            <mxPoint x="700" y="300" as="sourcePoint" />
            <mxPoint x="750" y="250" as="targetPoint" />
            <Array as="points">
              <mxPoint x="750" y="300" />
              <mxPoint x="700" y="250" />
            </Array>
          </mxGeometry>
        </mxCell>
        <mxCell id="JIwNZES6iCdUXcAtU9gG-19" value="（置灰）其他的文章" style="rounded=0;whiteSpace=wrap;html=1;" vertex="1" parent="1">
          <mxGeometry x="490" y="490" width="120" height="60" as="geometry" />
        </mxCell>
      </root>
    </mxGraphModel>
  </diagram>
</mxfile>
